<svg width="50" height="38" viewBox="0 0 50 38" fill="none" xmlns="http://www.w3.org/2000/svg">
<g clip-path="url(#clip0_1328_118)">
<path d="M17.1094 22H15C15 20.6739 14.4732 19.4021 13.5355 18.4645C12.5979 17.5268 11.3261 17 10 17C8.67392 17 7.40215 17.5268 6.46447 18.4645C5.52678 19.4021 5 20.6739 5 22H2.89062C2.22758 22 1.5917 22.2634 1.12286 22.7322C0.654017 23.2011 0.390625 23.837 0.390625 24.5L0 32.8332C0.00134384 33.9379 0.440776 34.997 1.22191 35.7781C2.00305 36.5592 3.06211 36.9987 4.1668 37H15.8332C16.9379 36.9987 17.997 36.5592 18.7781 35.7781C19.5592 34.997 19.9987 33.9379 20 32.8332L19.6094 24.5C19.6094 23.837 19.346 23.2011 18.8771 22.7322C18.4083 22.2634 17.7724 22 17.1094 22ZM10 18.6668C10.4377 18.6667 10.8712 18.7529 11.2756 18.9204C11.68 19.0879 12.0475 19.3334 12.357 19.643C12.6666 19.9525 12.9121 20.32 13.0796 20.7244C13.2471 21.1288 13.3333 21.5623 13.3332 22H6.6668C6.66675 21.5623 6.75293 21.1288 6.92042 20.7244C7.08791 20.32 7.33343 19.9525 7.64296 19.643C7.95248 19.3334 8.31995 19.0879 8.72438 18.9204C9.1288 18.7529 9.56226 18.6667 10 18.6668ZM18.3332 32.8332C18.3332 33.4962 18.0698 34.1321 17.601 34.601C17.1321 35.0698 16.4962 35.3332 15.8332 35.3332H4.1668C3.50376 35.3332 2.86787 35.0698 2.39903 34.601C1.93019 34.1321 1.6668 33.4962 1.6668 32.8332L2.05742 24.5C2.05737 24.3906 2.07889 24.2822 2.12074 24.1811C2.1626 24.08 2.22397 23.9881 2.30135 23.9107C2.37873 23.8333 2.4706 23.772 2.57171 23.7301C2.67282 23.6883 2.78119 23.6667 2.89062 23.6668H5V25.3332C4.9976 25.4442 5.01738 25.5545 5.05818 25.6577C5.09898 25.7609 5.15999 25.8549 5.23761 25.9343C5.31524 26.0136 5.40792 26.0766 5.51023 26.1196C5.61254 26.1627 5.72241 26.1848 5.8334 26.1848C5.94439 26.1848 6.05426 26.1627 6.15656 26.1196C6.25887 26.0766 6.35156 26.0136 6.42918 25.9343C6.50681 25.8549 6.56781 25.7609 6.60862 25.6577C6.64942 25.5545 6.6692 25.4442 6.6668 25.3332V23.6668H13.3332V25.3332C13.3308 25.4442 13.3506 25.5545 13.3914 25.6577C13.4322 25.7609 13.4932 25.8549 13.5708 25.9343C13.6484 26.0136 13.7411 26.0766 13.8434 26.1196C13.9457 26.1627 14.0556 26.1848 14.1666 26.1848C14.2776 26.1848 14.3875 26.1627 14.4898 26.1196C14.5921 26.0766 14.6848 26.0136 14.7624 25.9343C14.84 25.8549 14.901 25.7609 14.9418 25.6577C14.9826 25.5545 15.0024 25.4442 15 25.3332V23.6668H17.1094C17.2188 23.6667 17.3272 23.6883 17.4283 23.7301C17.5294 23.772 17.6213 23.8333 17.6987 23.9107C17.776 23.9881 17.8374 24.08 17.8793 24.1811C17.9211 24.2822 17.9426 24.3906 17.9426 24.5L18.3332 32.8332Z" fill="#8BA5D8"/>
</g>
<g clip-path="url(#clip1_1328_118)">
<path d="M48.7781 13.3793C47.9969 12.5982 46.9379 12.1588 45.8332 12.1574H43.9563V3.09492C43.9555 2.27439 43.6293 1.48766 43.0491 0.907419C42.4689 0.327177 41.6823 0.000827459 40.8617 0L39.1383 0C38.3179 0.000827114 37.5313 0.327069 36.9512 0.907143C36.371 1.48722 36.0447 2.27374 36.0437 3.09414V12.1566H34.1687C33.0636 12.1575 32.0039 12.5968 31.2223 13.3781C30.4407 14.1595 30.0011 15.2191 30 16.3242V31.259C30.001 32.0649 30.2358 32.8533 30.6758 33.5284C31.1159 34.2036 31.7424 34.7366 32.4793 35.0629C32.3355 35.2492 32.2428 35.4698 32.2103 35.7029C32.1778 35.936 32.2066 36.1736 32.2939 36.3922C32.3812 36.6107 32.524 36.8028 32.7081 36.9493C32.8923 37.0959 33.1115 37.1919 33.344 37.2279C33.5766 37.264 33.8146 37.2387 34.0345 37.1547C34.2543 37.0707 34.4485 36.9308 34.5978 36.7489C34.7471 36.567 34.8464 36.3492 34.8859 36.1172C34.9254 35.8852 34.9037 35.6469 34.823 35.4258H45.1785C45.0977 35.647 45.0759 35.8854 45.1153 36.1176C45.1547 36.3497 45.254 36.5676 45.4034 36.7497C45.5527 36.9317 45.747 37.0717 45.9669 37.1558C46.1869 37.2399 46.425 37.2652 46.6577 37.2291C46.8904 37.1931 47.1097 37.097 47.294 36.9503C47.4782 36.8037 47.621 36.6115 47.7083 36.3928C47.7956 36.1741 47.8243 35.9364 47.7917 35.7032C47.7591 35.4699 47.6662 35.2493 47.5223 35.0629C48.2589 34.7364 48.8851 34.2033 49.3248 33.5281C49.7646 32.853 49.9991 32.0647 50 31.259V16.3242C49.9988 15.2195 49.5593 14.1604 48.7781 13.3793ZM39.1383 1.5625H40.8617C41.2678 1.56291 41.6572 1.7244 41.9444 2.01154C42.2316 2.29868 42.3932 2.68802 42.3938 3.09414V12.1566H37.6062V3.09414C37.6068 2.68802 37.7684 2.29868 38.0556 2.01154C38.3428 1.7244 38.7322 1.56291 39.1383 1.5625ZM48.3332 31.259C48.3332 31.922 48.0698 32.5579 47.601 33.0268C47.1321 33.4956 46.4962 33.759 45.8332 33.759H34.1668C33.5038 33.759 32.8679 33.4956 32.399 33.0268C31.9302 32.5579 31.6668 31.922 31.6668 31.259V16.3242C31.6668 15.6612 31.9302 15.0253 32.399 14.5565C32.8679 14.0876 33.5038 13.8242 34.1668 13.8242H45.8332C46.4962 13.8242 47.1321 14.0876 47.601 14.5565C48.0698 15.0253 48.3332 15.6612 48.3332 16.3242V31.259Z" fill="#8BA5D8"/>
<path d="M36.8251 15.9074C36.6041 15.9075 36.3923 15.9953 36.236 16.1516C36.0798 16.3078 35.992 16.5197 35.9919 16.7406V30.4582C35.9895 30.5692 36.0093 30.6795 36.0501 30.7827C36.0909 30.8859 36.1519 30.9799 36.2295 31.0593C36.3071 31.1386 36.3998 31.2016 36.5021 31.2446C36.6044 31.2877 36.7143 31.3098 36.8253 31.3098C36.9363 31.3098 37.0461 31.2877 37.1485 31.2446C37.2508 31.2016 37.3434 31.1386 37.4211 31.0593C37.4987 30.9799 37.5597 30.8859 37.6005 30.7827C37.6413 30.6795 37.6611 30.5692 37.6587 30.4582V16.7406C37.6586 16.5196 37.5707 16.3077 37.4144 16.1514C37.2581 15.9952 37.0461 15.9074 36.8251 15.9074Z" fill="#8BA5D8"/>
<path d="M43.1751 15.9074C42.9541 15.9074 42.7421 15.9952 42.5858 16.1514C42.4295 16.3077 42.3416 16.5196 42.3415 16.7406V30.4582C42.3391 30.5692 42.3589 30.6795 42.3997 30.7827C42.4405 30.8859 42.5015 30.9799 42.5791 31.0593C42.6567 31.1386 42.7494 31.2016 42.8517 31.2446C42.954 31.2877 43.0639 31.3098 43.1749 31.3098C43.2859 31.3098 43.3958 31.2877 43.4981 31.2446C43.6004 31.2016 43.6931 31.1386 43.7707 31.0593C43.8483 30.9799 43.9093 30.8859 43.9501 30.7827C43.9909 30.6795 44.0107 30.5692 44.0083 30.4582V16.7406C44.0082 16.5197 43.9204 16.3078 43.7641 16.1516C43.6079 15.9953 43.396 15.9075 43.1751 15.9074Z" fill="#8BA5D8"/>
</g>
<defs>
<clipPath id="clip0_1328_118">
<rect width="20" height="20" fill="white" transform="translate(0 17)"/>
</clipPath>
<clipPath id="clip1_1328_118">
<rect width="20" height="37.2453" fill="white" transform="translate(30)"/>
</clipPath>
</defs>
</svg>
